<svg xmlns="http://www.w3.org/2000/svg"
									 xmlns:xlink="http://www.w3.org/1999/xlink"
									 width="23" height="23">
									<path fill-rule="evenodd"  fill="rgb(255, 255, 255)"
									 d="M11.500,-0.002 C5.148,-0.002 -0.002,5.148 -0.002,11.500 C-0.002,17.853 5.148,23.002 11.500,23.002 C17.852,23.002 23.002,17.853 23.002,11.500 C23.002,5.148 17.852,-0.002 11.500,-0.002 ZM17.455,10.630 L12.241,15.843 C11.240,16.846 9.870,17.099 9.182,16.411 C9.173,16.402 9.168,16.389 9.159,16.379 C9.001,16.305 8.847,16.216 8.716,16.086 L5.563,12.933 C4.958,12.327 4.958,11.345 5.563,10.740 C6.169,10.134 7.151,10.134 7.757,10.740 L10.058,13.041 L14.962,8.137 C15.963,7.135 17.331,6.882 18.021,7.570 C18.710,8.259 18.455,9.630 17.455,10.630 Z"/>
									</svg>